# xmcd
#
# Track frame offsets:
#	150
#	9668
#	18948
#	28580
#	36688
#	49516
#	58798
#	69984
#	79264
#	88690
#	99538
#	114799
#	128401
#	140043
#	147815
#	153430
#
# Disc length: 2184 seconds
# Revision: 0
# Processed by: cddbd v1.5.2PL0 Copyright (c) Steve Scherf et al.
# Submitted via: dBpowerAMP V12.0
#
DISCID=cf088610
DTITLE=Jesse McReynolds and Friends - The Bull Mountain Moonshiners' Way
DYEAR=2019
DGENRE=Bluegrass
TTITLE0=The Bull Mountain Moonshiners
TTITLE1=Billy in the Lowground
TTITLE2=Ricketts Hornpipe
TTITLE3=Sally Goodwin
TTITLE4=Soldier's Joy
TTITLE5=Johnny Bring the Jug Around the Hill
TTITLE6=The Girl I Left Behind Me (Johnny Goodwin)
TTITLE7=Bonaparte's Retreat
TTITLE8=Sally Johnson
TTITLE9=Mississippi Sawyer
TTITLE10=Kennedy Rag
TTITLE11=Chinese Breakdown
TTITLE12=Duncan's Country Store
TTITLE13=Leather Britches
TTITLE14=Smith's Reel
TTITLE15=Turkey in the Straw
EXTD=
EXTT0=
EXTT1=
EXTT2=
EXTT3=
EXTT4=
EXTT5=
EXTT6=
EXTT7=
EXTT8=
EXTT9=
EXTT10=
EXTT11=
EXTT12=
EXTT13=
EXTT14=
EXTT15=
PLAYORDER=
